<svg width="122" height="122" viewBox="0 0 122 122" fill="none" xmlns="http://www.w3.org/2000/svg">
<g clip-path="url(#clip0_2_20)">
<path d="M67.1356 26.84C66.6019 26.7434 64.0246 26.3113 61 26.3113C57.9754 26.3113 55.3982 26.7434 54.8644 26.84C54.5594 26.8908 54.4374 26.596 54.6713 26.4181C54.8848 26.2656 61 21.6093 61 21.6093L67.3237 26.4181C67.5626 26.596 67.4457 26.8959 67.1356 26.84V26.84ZM56.5724 57.0604C56.5724 57.0604 56.2471 57.1773 56.1658 57.462C57.4468 58.4431 58.3262 60.6848 61 60.6848C63.6739 60.6848 64.5584 58.4482 65.8343 57.4569C65.7529 57.1723 65.4276 57.0604 65.4276 57.0604C65.4276 57.0604 63.7501 57.4518 61 57.4518C58.2449 57.4518 56.5724 57.0604 56.5724 57.0604V57.0604ZM61 53.2886C60.2579 53.2886 60.0952 53.009 59.5869 53.009C59.109 53.009 58.1686 53.3953 57.9653 53.7512C57.9784 53.932 58.0538 54.1027 58.1788 54.2341C59.2564 54.3917 59.7495 54.9966 61 54.9966C62.2556 54.9966 62.7436 54.3917 63.8264 54.2341C63.9481 54.1011 64.0215 53.931 64.0348 53.7512C63.8314 53.3953 62.8961 53.0141 62.4132 53.009C61.9049 53.009 61.7422 53.2886 61 53.2886V53.2886ZM121.934 64.8278C121.857 66.2773 121.728 67.7236 121.548 69.1638C114.634 70.3076 112.169 64.1517 105.093 64.4618C105.515 65.9613 105.855 67.4914 106.125 69.052C111.96 69.052 114.309 74.5064 120.805 73.7033C120.465 75.3706 120.053 77.0176 119.575 78.6341C114.441 79.1424 112.637 74.0388 106.694 74.1811C106.745 75.0249 106.77 75.8789 106.77 76.7431L106.745 78.1664L118.284 82.5686C117.68 84.2029 117.007 85.8107 116.266 87.3876C112.799 87.1995 111.605 82.7516 106.328 83.1023C106.17 84.2362 105.97 85.3638 105.728 86.4828C110.308 86.1625 111.295 90.3817 114.573 90.7223C113.738 92.2453 112.839 93.7326 111.879 95.1803C109.937 94.1383 108.25 90.9968 104.559 90.8036C104.941 89.632 105.274 88.4449 105.555 87.2453C102.282 87.2453 98.5404 85.9744 95.4091 83.1176C96.4258 77.3226 87.4384 71.431 87.4384 67.1915C87.4384 62.586 89.7666 60.0393 89.7666 53.8325C89.7666 49.2219 87.5299 44.225 84.1546 40.809C83.5274 40.1687 82.826 39.6056 82.0653 39.1315C85.1662 42.9643 87.5452 47.5139 87.5452 52.7803C87.5452 58.6261 84.8256 61.7117 84.8256 67.1102C84.8256 72.5036 92.72 77.1752 92.72 82.7363C92.72 84.9222 92.0185 87.0572 89.7107 91.2611C93.2538 94.7991 97.8694 96.7308 100.843 96.7308C101.809 96.7308 102.333 96.4359 102.678 95.6785C102.977 95.0227 103.26 94.36 103.527 93.6909C106.73 93.8129 108.204 96.7257 109.978 97.8898C109.002 99.2013 107.98 100.462 106.908 101.682C105.718 100.365 104.117 98.149 101.773 97.5339C101.356 98.3481 100.916 99.15 100.452 99.9383C102.465 100.487 103.842 102.521 104.91 103.858C103.759 105.051 102.56 106.197 101.316 107.294C100.538 106.079 99.3233 104.544 97.9609 103.715C97.4605 104.391 96.94 105.053 96.4004 105.698C97.5543 106.486 98.576 107.894 99.2419 109.043C97.8034 110.197 96.3139 111.295 94.7686 112.321C94.0061 106.12 85.5474 101.875 87.8299 94.6822C87.0826 95.953 86.1879 97.5339 86.1879 99.4453C86.1879 104.651 91.7288 108.778 92.1761 113.953C91.0273 114.639 89.8479 115.285 88.6534 115.9C88.45 110.212 82.5839 103.99 82.5839 99.3283C82.5839 94.1179 89.4057 88.8821 89.4057 82.7363C89.4057 76.5855 81.5316 72.3206 81.5316 66.9221C81.5316 61.5236 84.8815 58.4177 84.8815 51.4942C84.8815 46.4261 82.472 41.297 78.751 38.0233C78.1201 37.4531 77.4199 36.9647 76.6669 36.5695C80.1744 40.7785 82.2077 44.6012 82.2077 50.3911C82.2077 56.8978 78.3698 60.5069 78.3698 66.8814C78.3698 73.2559 86.0964 76.7939 86.0964 82.7414C86.0964 88.6788 78.9035 93.6808 78.9035 99.7858C78.9035 105.337 85.2424 110.878 85.339 117.461C83.9491 118.066 82.5366 118.619 81.1046 119.118C81.9129 112.464 74.7759 105.601 74.7759 100.172C74.7759 94.2399 82.2331 89.1363 82.2331 82.7363C82.2331 76.3313 74.6539 73.3576 74.6539 66.7848C74.6539 60.2172 79.3051 56.5826 79.3051 49.3236C79.29 46.6373 78.6633 43.9897 77.4724 41.5816C76.2816 39.1736 74.5581 37.0684 72.4324 35.4258L72.1732 35.2326C71.7869 34.9479 71.4717 35.2885 71.7462 35.6291C74.6335 39.2383 76.1789 42.883 76.1789 48.2866C76.1789 54.9203 70.8312 60.3138 70.8312 66.7493C70.8312 74.3387 78.0089 76.5093 78.0089 82.7363C78.0089 88.9634 70.3127 93.9451 70.3127 100.553C70.3127 106.684 77.5971 113.491 76.3466 120.567C74.8787 120.949 73.3967 121.274 71.9038 121.543C73.2712 112.733 66.124 106.404 66.124 100.64C66.124 94.3975 74.0947 88.8363 74.0947 82.7363C74.0947 76.9871 68.3759 75.1063 67.6236 69.2198C67.5219 68.4166 66.8764 67.8218 65.9868 67.9693C64.8227 68.1828 63.3333 68.9453 60.9949 68.9453C58.6566 68.9453 57.1672 68.1828 56.0031 67.9693C55.1186 67.8218 54.473 68.4166 54.3714 69.2198C53.619 75.1063 47.8952 76.982 47.8952 82.7414C47.8952 88.8363 55.8659 94.3975 55.8659 100.635C55.8659 106.404 48.7238 112.733 50.0861 121.543C48.5937 121.272 47.1117 120.946 45.6433 120.567C44.3928 113.491 51.6772 106.689 51.6772 100.553C51.6772 93.9451 43.981 88.9634 43.981 82.7363C43.981 76.5093 51.1587 74.3387 51.1587 66.7493C51.1587 60.3138 45.811 54.9254 45.811 48.2815C45.811 42.883 47.3564 39.2332 50.2488 35.624C50.5182 35.2885 50.203 34.9479 49.8167 35.2326L49.5625 35.4258C47.4381 37.0668 45.7154 39.1704 44.5255 41.5768C43.3355 43.9831 42.7095 46.629 42.6949 49.3134C42.6949 56.5724 47.3462 60.207 47.3462 66.7798C47.3462 73.3474 39.7619 76.3263 39.7619 82.7313C39.7619 89.1261 47.2191 94.2298 47.2191 100.167C47.2191 105.596 40.0872 112.459 40.8954 119.113C39.4637 118.614 38.0512 118.061 36.661 117.456C36.7576 110.868 43.0914 105.327 43.0914 99.7757C43.0914 93.6757 35.9036 88.6686 35.9036 82.7313C35.9036 76.7888 43.6252 73.2458 43.6252 66.8713C43.6252 60.5018 39.7924 56.8876 39.7924 50.3809C39.7924 44.5859 41.8257 40.7734 45.3332 36.5644C44.5504 36.9711 43.9048 37.4286 43.249 38.0132C41.3535 39.7144 39.8303 41.7894 38.7753 44.1076C37.7203 46.4258 37.1562 48.9373 37.1185 51.484C37.1185 58.4075 40.4684 61.5134 40.4684 66.9119C40.4684 72.3155 32.5944 76.5703 32.5944 82.7262C32.5944 88.877 39.4162 94.1128 39.4162 99.3182C39.4162 103.985 33.5449 110.207 33.3467 115.89C32.1511 115.28 30.9762 114.631 29.8239 113.943C30.2662 108.773 35.8121 104.64 35.8121 99.4351C35.8121 97.5288 34.9174 95.9428 34.1702 94.6771C36.4475 101.865 27.9889 106.115 27.2264 112.311C25.6868 111.286 24.1942 110.192 22.753 109.032C23.4189 107.889 24.4407 106.476 25.5997 105.693C25.0571 105.047 24.5349 104.384 24.034 103.705C22.6717 104.534 21.4568 106.074 20.679 107.284C19.4359 106.188 18.2369 105.044 17.0851 103.853C18.1526 102.511 19.5353 100.477 21.5483 99.9282C21.0822 99.1401 20.6397 98.3383 20.2215 97.5238C17.8832 98.1439 16.2769 100.36 15.0874 101.677C14.016 100.454 12.9935 99.1886 12.0221 97.8847C13.8013 96.7155 15.2653 93.8028 18.4729 93.6808C18.7423 94.3467 19.0219 95.0126 19.3218 95.6633C19.6674 96.4258 20.1859 96.7206 21.1518 96.7206C24.1306 96.7206 28.7412 94.7889 32.2843 91.2509C29.9815 87.0521 29.2851 84.9171 29.2851 82.7262C29.2851 77.165 37.1744 72.4985 37.1744 67.1C37.1744 61.7066 34.4549 58.621 34.4549 52.7752C34.4549 47.5038 36.8339 42.9593 39.9347 39.1213C39.1723 39.5951 38.4692 40.1583 37.8404 40.7988C34.4701 44.225 32.2284 49.2219 32.2284 53.8274C32.2284 60.0342 34.5616 62.586 34.5616 67.1915C34.5616 71.431 25.5743 77.3226 26.5909 83.1125C23.4545 85.9693 19.7132 87.2453 16.4395 87.2453C16.7235 88.4438 17.0541 89.6308 17.4308 90.8036C13.7454 90.9968 12.0628 94.1383 10.1108 95.1753C9.15022 93.7296 8.25136 92.244 7.4166 90.7223C10.7004 90.3766 11.6866 86.1625 16.2718 86.4828C16.0302 85.3637 15.8301 84.2362 15.6719 83.1023C10.3954 82.7465 9.19577 87.1995 5.72893 87.3876C4.98967 85.8106 4.31806 84.2028 3.71593 82.5686L15.25 78.1613L15.2246 76.738C15.2246 75.8738 15.25 75.0198 15.2958 74.1709C9.35843 74.0337 7.54877 79.1323 2.4146 78.629C1.93854 77.003 1.52983 75.3579 1.18952 73.6982C7.67585 74.4963 10.0345 69.0418 15.8702 69.0469C16.1311 67.4981 16.4738 65.9642 16.897 64.4516C9.82102 64.1466 7.35052 70.2974 0.447351 69.1537C0.265983 67.7152 0.137119 66.2706 0.0610174 64.8227C8.09268 65.7173 11.0969 59.1192 18.4119 59.9274C19.0968 58.1877 19.8949 56.4948 20.801 54.8593C11.6358 53.2479 8.52477 60.9136 -0.00506592 59.7393C0.920101 26.84 27.877 0.457504 61 0.457504C94.123 0.457504 121.08 26.84 122 59.7444C113.465 60.9238 110.359 53.2581 101.194 54.8644C102.094 56.4911 102.897 58.1889 103.583 59.9325C110.893 59.1243 113.902 65.7275 121.934 64.8278V64.8278ZM34.77 39.2332C30.2764 37.3981 24.8372 37.82 20.191 40.809C19.4692 36.4831 17.1258 32.6401 13.786 30.3272C13.3234 30.0069 12.8456 30.3068 12.8863 30.8457C13.5929 39.9753 8.25027 47.9053 1.68768 54.8797C8.4536 56.913 14.213 48.2002 22.9869 51.24C26.1419 46.5465 30.1366 42.4759 34.77 39.2332V39.2332ZM61 33.7076C55.3372 33.7076 50.5894 36.9101 49.349 41.053C49.2474 41.3682 49.3795 41.5766 49.7455 41.4088C50.7622 40.9513 51.9263 40.7328 53.1869 40.7328C55.4948 40.7328 57.5332 41.5817 58.7379 43.0558C59.2666 44.8147 59.3124 47.3614 58.7125 48.8102C57.7619 48.5967 57.4163 47.8647 56.486 47.8647C55.5609 47.8647 54.839 48.5153 53.2632 48.5153C51.6874 48.5153 51.5044 47.7732 50.4674 47.7732C49.2474 47.7732 49.0237 49.0288 49.0237 50.4419C49.0237 56.7554 54.8289 65.4378 61 65.4378C67.1661 65.4378 72.9662 56.7554 72.9662 50.4419C72.9662 49.0237 72.6764 47.8138 71.4056 47.6461C70.6559 48.2627 69.7008 48.5732 68.7318 48.5153C67.1559 48.5153 66.7239 47.8647 65.7936 47.8647C64.6753 47.8647 64.7871 50.2284 63.4553 50.3555C62.5657 48.2256 62.525 45.4908 63.2621 43.0558C64.4669 41.5817 66.5002 40.7328 68.8131 40.7328C70.0738 40.7328 71.2379 40.9564 72.2494 41.4088C72.6154 41.5766 72.7425 41.3682 72.651 41.053C71.4107 36.9152 66.6629 33.7076 61 33.7076V33.7076ZM70.0179 42.7661C68.6606 42.7661 67.0695 43.1829 66.0681 44.2962C65.9664 44.6012 65.9664 45.0536 66.1088 45.3535C68.5742 44.5097 70.7448 44.4741 71.797 45.6483C72.3562 45.14 72.5341 44.6825 72.5341 44.1538C72.5341 43.3354 71.7004 42.7661 70.0179 42.7661ZM50.203 45.6483C51.3925 44.4588 53.8986 44.5097 56.4962 45.4704C56.6131 44.1793 54.2951 42.761 51.9822 42.761C50.2996 42.761 49.4659 43.3303 49.4659 44.1538C49.4659 44.6825 49.6439 45.1451 50.203 45.6483ZM89.243 24.2831C84.7697 24.6033 80.8911 26.1385 77.7445 28.6954C79.0238 25.0552 80.7646 21.594 82.9244 18.3966C77.2311 19.0015 72.468 21.0857 68.9961 24.644L66.2714 17.5121L72.3104 12.1848L64.2279 11.6103L61 4.09209L57.7721 11.6154L49.6896 12.1848L55.7235 17.5172L53.009 24.644C49.532 21.0857 44.774 19.0015 39.0807 18.3966C41.2347 21.5958 42.9719 25.0567 44.2504 28.6954C41.1089 26.1385 37.2253 24.6033 32.7519 24.2831C35.4359 27.7347 37.8149 31.4099 39.5738 35.3648C39.7771 35.8121 40.2041 35.9595 40.6616 35.7257C46.9796 32.5869 53.9402 30.9581 60.9949 30.9677C68.3048 30.9677 75.2029 32.6858 81.3334 35.7257C81.7959 35.9595 82.2229 35.8121 82.4212 35.3698C84.1851 31.4099 86.5641 27.7347 89.2481 24.2882L89.243 24.2831ZM99.0132 51.2451C107.787 48.2053 113.552 56.913 120.312 54.8848C113.75 47.9104 108.412 39.9804 109.119 30.8457C109.16 30.3119 108.677 30.0069 108.219 30.3272C104.879 32.6452 102.531 36.4882 101.814 40.809C97.1679 37.8251 91.7288 37.4032 87.2351 39.2383C91.8661 42.4821 95.859 46.5525 99.0132 51.2451V51.2451Z" fill="#007B0C"/>
</g>
<defs>
<clipPath id="clip0_2_20">
<rect width="122" height="122" fill="white"/>
</clipPath>
</defs>
</svg>